<svg xmlns="http://www.w3.org/2000/svg" width="400" height="200" viewBox="0 0 400 200">
  <rect fill="#191F34" width="400" height="200"/>
  <rect fill="#FFC100" x="150" y="50" width="100" height="90" rx="8"/>
  <rect fill="#CC7447" x="150" y="50" width="100" height="25" rx="8"/>
  <rect fill="#CC7447" x="150" y="67" width="100" height="8"/>
  <circle fill="#191F34" cx="170" cy="50" r="6"/>
  <circle fill="#191F34" cx="230" cy="50" r="6"/>
  <rect fill="#191F34" x="165" y="45" width="10" height="15" rx="2"/>
  <rect fill="#191F34" x="225" y="45" width="10" height="15" rx="2"/>
  <rect fill="#191F34" x="160" y="85" width="20" height="15" rx="2" opacity="0.3"/>
  <rect fill="#191F34" x="190" y="85" width="20" height="15" rx="2" opacity="0.3"/>
  <rect fill="#191F34" x="220" y="85" width="20" height="15" rx="2" opacity="0.3"/>
  <rect fill="#191F34" x="160" y="110" width="20" height="15" rx="2" opacity="0.3"/>
  <rect fill="#191F34" x="190" y="110" width="20" height="15" rx="2" opacity="0.3"/>
  <rect fill="#191F34" x="220" y="110" width="20" height="15" rx="2" opacity="0.3"/>
  <text x="200" y="170" text-anchor="middle" fill="#64748b" font-family="Arial, sans-serif" font-size="12">Evenement</text>
</svg>
